M48
;GenerationSoftware,Autodesk,EAGLE,9.5.2*%
;CreationDate,2020-01-02T10:51:09Z*%
FMAT,2
ICI,OFF
METRIC,TZ,000.000
T6C0.400
T5C0.600
T4C1.016
T3C1.270
T2C1.400
T1C1.778
%
G90
M71
T1
X23733Y56518
X23733Y61618
X18634Y61618
X18634Y56518
T2
X18796Y9848
X13796Y9848
X23796Y9848
T3
X21184Y59068
T4
X6096Y16510
X6350Y13970
X6096Y11430
X6350Y8890
X54864Y11430
X54610Y13970
X54864Y16510
X54610Y19050
X54864Y21590
X54610Y24130
X54864Y26670
X54610Y30480
X54864Y33020
X54610Y35560
X54864Y38100
X54610Y40640
X54864Y43180
X54610Y8890
X54610Y45720
X54864Y48260
X54610Y50800
X54610Y53340
X6350Y41910
X6096Y44450
X8890Y26670
X8890Y29210
X8890Y31750
X8890Y34290
X8890Y36830
X8890Y39370
X8890Y41910
X8890Y44450
X8890Y8890
X8890Y11430
X8890Y13970
X8890Y16510
X8890Y19050
X13462Y29972
X16002Y29972
X18542Y29972
X32004Y17780
X34544Y17780
X37084Y17780
X39624Y17780
X37338Y8636
X37338Y6096
X52070Y40640
X52070Y26670
X52070Y24130
X52070Y21590
X52070Y19050
X52070Y16510
X52070Y13970
X52070Y11430
X52070Y8890
X52070Y53340
X52070Y50800
X52070Y48260
X52070Y45720
X52070Y43180
X8890Y21590
X52070Y38100
X52070Y35560
X52070Y33020
X52070Y30480
X6096Y39370
X6350Y36830
X6096Y34290
X6350Y31750
X6096Y29210
X6350Y26670
X6096Y21590
X6350Y19050
T5
X40130Y6210
X48770Y6210
X40130Y10010
X48770Y10010
T6
X31750Y60452
X30734Y60452
X29718Y60452
X28702Y60452
X27686Y60452
X26670Y60452
X25654Y60452
X25654Y57912
X26670Y57912
X27686Y57912
X28702Y57912
X29464Y57150
X46990Y61468
X49276Y58928
X40132Y28702
X42164Y29210
X46228Y21082
X40640Y8128
X45974Y8636
X15748Y47244
X46482Y43434
X42672Y46990
X44196Y49276
X42672Y43434
X34290Y57150
X28702Y46482
X26416Y44958
X34290Y56134
X29464Y56134
X29464Y55118
X22606Y54356
X21082Y54864
X16002Y57658
X16764Y59182
X16002Y60960
X17526Y42164
X41910Y21336
X20828Y52070
X19050Y48768
X18796Y42926
X35052Y23622
X34036Y58166
X34036Y59182
X33782Y60198
X49784Y51308
X48514Y38608
X50038Y55118
X49530Y46482
X48006Y36830
X32766Y60452
X44450Y58420
M30