G04 EAGLE Gerber RS-274X export*
G75*
%MOMM*%
%FSLAX34Y34*%
%LPD*%
%INSoldermask Bottom*%
%IPPOS*%
%AMOC8*
5,1,8,0,0,1.08239X$1,22.5*%
G01*
%ADD10C,1.311200*%
%ADD11P,1.869504X8X22.500000*%
%ADD12C,2.082800*%
%ADD13P,1.869504X8X202.500000*%
%ADD14C,2.108200*%
%ADD15C,2.870200*%
%ADD16P,1.869504X8X112.500000*%
%ADD17C,2.583200*%


D10*
X487700Y94560D02*
X487700Y105640D01*
X401300Y105640D02*
X401300Y94560D01*
X487700Y67640D02*
X487700Y56560D01*
X401300Y56560D02*
X401300Y67640D01*
D11*
X520700Y266700D03*
X520700Y241300D03*
X520700Y215900D03*
X520700Y190500D03*
X520700Y165100D03*
X520700Y139700D03*
X520700Y114300D03*
X520700Y88900D03*
X520700Y533400D03*
X520700Y508000D03*
X520700Y482600D03*
X520700Y457200D03*
X520700Y431800D03*
X520700Y406400D03*
X520700Y381000D03*
X520700Y355600D03*
X520700Y330200D03*
X520700Y304800D03*
D12*
X60960Y393700D03*
X63500Y368300D03*
X60960Y342900D03*
X63500Y317500D03*
X60960Y292100D03*
X63500Y266700D03*
X60960Y215900D03*
X63500Y190500D03*
X60960Y165100D03*
X63500Y139700D03*
X60960Y114300D03*
X63500Y88900D03*
X546100Y88900D03*
X548640Y114300D03*
X546100Y139700D03*
X548640Y165100D03*
X546100Y190500D03*
X548640Y215900D03*
X546100Y241300D03*
X548640Y266700D03*
X546100Y304800D03*
X548640Y330200D03*
X546100Y355600D03*
X548640Y381000D03*
X546100Y406400D03*
X548640Y431800D03*
X546100Y457200D03*
X548640Y482600D03*
X546100Y508000D03*
X546100Y533400D03*
X63500Y419100D03*
X60960Y444500D03*
D13*
X88900Y266700D03*
X88900Y292100D03*
X88900Y317500D03*
X88900Y342900D03*
X88900Y368300D03*
X88900Y393700D03*
X88900Y419100D03*
X88900Y444500D03*
X88900Y88900D03*
X88900Y114300D03*
X88900Y139700D03*
X88900Y165100D03*
X88900Y190500D03*
X88900Y215900D03*
D14*
X211836Y590677D03*
D15*
X186337Y565178D03*
X186337Y616176D03*
X237335Y616176D03*
X237335Y565178D03*
D16*
X134620Y299720D03*
X160020Y299720D03*
X185420Y299720D03*
X320040Y177800D03*
X345440Y177800D03*
X370840Y177800D03*
X396240Y177800D03*
D17*
X187960Y110380D02*
X187960Y86580D01*
X237960Y86580D02*
X237960Y110380D01*
X137960Y110380D02*
X137960Y86580D01*
D11*
X373380Y86360D03*
X373380Y60960D03*
M02*
