G04 EAGLE Gerber RS-274X export*
G75*
%MOMM*%
%FSLAX34Y34*%
%LPD*%
%INSolderpaste Top*%
%IPPOS*%
%AMOC8*
5,1,8,0,0,1.08239X$1,22.5*%
G01*
%ADD10R,1.100000X1.000000*%
%ADD11R,1.500000X1.300000*%
%ADD12R,0.910000X1.220000*%
%ADD13R,0.800000X0.800000*%
%ADD14R,1.850000X0.900000*%
%ADD15R,1.850000X3.200000*%
%ADD16R,0.800000X2.000000*%
%ADD17R,0.760000X2.000000*%
%ADD18R,0.700000X2.000000*%
%ADD19R,3.000000X1.000000*%
%ADD20R,1.000000X1.100000*%
%ADD21R,2.400000X1.600000*%
%ADD22R,1.000000X1.270000*%
%ADD23R,0.850000X0.300000*%
%ADD24R,0.550000X1.150000*%
%ADD25R,2.235200X2.489200*%


D10*
X443620Y195580D03*
X460620Y195580D03*
D11*
X388620Y268580D03*
X388620Y249580D03*
D12*
X468470Y172720D03*
X435770Y172720D03*
D13*
X542290Y579240D03*
X542290Y594240D03*
D10*
X525780Y578240D03*
X525780Y595240D03*
D14*
X418580Y271920D03*
X418580Y248920D03*
X418580Y225920D03*
D15*
X480580Y248920D03*
D16*
X417000Y105600D03*
X472000Y105600D03*
D17*
X429300Y105600D03*
X459700Y105600D03*
D18*
X439500Y105600D03*
X449500Y105600D03*
D19*
X468700Y550700D03*
X318700Y510700D03*
X318700Y590700D03*
X318700Y490700D03*
X318700Y470700D03*
X318700Y450700D03*
X318700Y550700D03*
X318700Y530700D03*
X468700Y570700D03*
X468700Y450700D03*
X468700Y590700D03*
X318700Y570700D03*
X468700Y470700D03*
X468700Y490700D03*
X468700Y530700D03*
X468700Y510700D03*
D20*
X287020Y510658D03*
X287020Y493658D03*
D21*
X258826Y510554D03*
X258826Y480554D03*
D22*
X63500Y522480D03*
X76200Y522480D03*
X88900Y522480D03*
X88900Y554480D03*
X76200Y554480D03*
X63500Y554480D03*
D10*
X107560Y568960D03*
X90560Y568960D03*
D20*
X166760Y505460D03*
X183760Y505460D03*
X166760Y528320D03*
X183760Y528320D03*
D23*
X229110Y439540D03*
X229110Y444540D03*
X229110Y449540D03*
X229110Y454540D03*
X197610Y454540D03*
X197610Y449540D03*
X197610Y444540D03*
X197610Y439540D03*
D10*
X173600Y457200D03*
X156600Y457200D03*
X173600Y436880D03*
X156600Y436880D03*
D20*
X153280Y190500D03*
X136280Y190500D03*
X204080Y165100D03*
X187080Y165100D03*
X187080Y190500D03*
X204080Y190500D03*
D10*
X136280Y215900D03*
X153280Y215900D03*
D24*
X202080Y228440D03*
X189080Y228440D03*
X195580Y208440D03*
D20*
X448700Y388620D03*
X465700Y388620D03*
X465700Y408940D03*
X448700Y408940D03*
X448700Y327660D03*
X465700Y327660D03*
X465700Y307340D03*
X448700Y307340D03*
X448700Y347980D03*
X465700Y347980D03*
X465700Y368300D03*
X448700Y368300D03*
D10*
X153280Y165100D03*
X136280Y165100D03*
D25*
X342900Y73660D03*
M02*
