G04 EAGLE Gerber RS-274X export*
G75*
%MOMM*%
%FSLAX34Y34*%
%LPD*%
%INSoldermask Top*%
%IPPOS*%
%AMOC8*
5,1,8,0,0,1.08239X$1,22.5*%
G01*
%ADD10R,1.303200X1.203200*%
%ADD11R,1.703200X1.503200*%
%ADD12R,1.113200X1.423200*%
%ADD13R,1.003200X1.003200*%
%ADD14R,2.053200X1.103200*%
%ADD15R,2.053200X3.403200*%
%ADD16R,1.003200X2.203200*%
%ADD17R,0.963200X2.203200*%
%ADD18R,0.903200X2.203200*%
%ADD19C,1.311200*%
%ADD20R,3.203200X1.203200*%
%ADD21R,1.203200X1.303200*%
%ADD22R,2.603200X1.803200*%
%ADD23P,1.869504X8X22.500000*%
%ADD24C,2.082800*%
%ADD25P,1.869504X8X202.500000*%
%ADD26C,2.108200*%
%ADD27C,2.870200*%
%ADD28R,1.203200X1.473200*%
%ADD29R,1.053200X0.503200*%
%ADD30P,1.869504X8X112.500000*%
%ADD31C,2.583200*%
%ADD32R,0.753200X1.353200*%
%ADD33R,1.473200X0.838200*%


D10*
X443620Y195580D03*
X460620Y195580D03*
D11*
X388620Y268580D03*
X388620Y249580D03*
D12*
X468470Y172720D03*
X435770Y172720D03*
D13*
X542290Y579240D03*
X542290Y594240D03*
D10*
X525780Y578240D03*
X525780Y595240D03*
D14*
X418580Y271920D03*
X418580Y248920D03*
X418580Y225920D03*
D15*
X480580Y248920D03*
D16*
X417000Y105600D03*
X472000Y105600D03*
D17*
X429300Y105600D03*
X459700Y105600D03*
D18*
X439500Y105600D03*
X449500Y105600D03*
D19*
X487700Y105640D02*
X487700Y94560D01*
X401300Y94560D02*
X401300Y105640D01*
X487700Y67640D02*
X487700Y56560D01*
X401300Y56560D02*
X401300Y67640D01*
D20*
X468700Y550700D03*
X318700Y510700D03*
X318700Y590700D03*
X318700Y490700D03*
X318700Y470700D03*
X318700Y450700D03*
X318700Y550700D03*
X318700Y530700D03*
X468700Y570700D03*
X468700Y450700D03*
X468700Y590700D03*
X318700Y570700D03*
X468700Y470700D03*
X468700Y490700D03*
X468700Y530700D03*
X468700Y510700D03*
D21*
X287020Y510658D03*
X287020Y493658D03*
D22*
X258826Y510554D03*
X258826Y480554D03*
D23*
X520700Y266700D03*
X520700Y241300D03*
X520700Y215900D03*
X520700Y190500D03*
X520700Y165100D03*
X520700Y139700D03*
X520700Y114300D03*
X520700Y88900D03*
X520700Y533400D03*
X520700Y508000D03*
X520700Y482600D03*
X520700Y457200D03*
X520700Y431800D03*
X520700Y406400D03*
X520700Y381000D03*
X520700Y355600D03*
X520700Y330200D03*
X520700Y304800D03*
D24*
X60960Y393700D03*
X63500Y368300D03*
X60960Y342900D03*
X63500Y317500D03*
X60960Y292100D03*
X63500Y266700D03*
X60960Y215900D03*
X63500Y190500D03*
X60960Y165100D03*
X63500Y139700D03*
X60960Y114300D03*
X63500Y88900D03*
X546100Y88900D03*
X548640Y114300D03*
X546100Y139700D03*
X548640Y165100D03*
X546100Y190500D03*
X548640Y215900D03*
X546100Y241300D03*
X548640Y266700D03*
X546100Y304800D03*
X548640Y330200D03*
X546100Y355600D03*
X548640Y381000D03*
X546100Y406400D03*
X548640Y431800D03*
X546100Y457200D03*
X548640Y482600D03*
X546100Y508000D03*
X546100Y533400D03*
X63500Y419100D03*
X60960Y444500D03*
D25*
X88900Y266700D03*
X88900Y292100D03*
X88900Y317500D03*
X88900Y342900D03*
X88900Y368300D03*
X88900Y393700D03*
X88900Y419100D03*
X88900Y444500D03*
X88900Y88900D03*
X88900Y114300D03*
X88900Y139700D03*
X88900Y165100D03*
X88900Y190500D03*
X88900Y215900D03*
D26*
X211836Y590677D03*
D27*
X186337Y565178D03*
X186337Y616176D03*
X237335Y616176D03*
X237335Y565178D03*
D28*
X63500Y522480D03*
X76200Y522480D03*
X88900Y522480D03*
X88900Y554480D03*
X76200Y554480D03*
X63500Y554480D03*
D10*
X107560Y568960D03*
X90560Y568960D03*
D21*
X166760Y505460D03*
X183760Y505460D03*
X166760Y528320D03*
X183760Y528320D03*
D29*
X229110Y439540D03*
X229110Y444540D03*
X229110Y449540D03*
X229110Y454540D03*
X197610Y454540D03*
X197610Y449540D03*
X197610Y444540D03*
X197610Y439540D03*
D10*
X173600Y457200D03*
X156600Y457200D03*
X173600Y436880D03*
X156600Y436880D03*
D30*
X134620Y299720D03*
X160020Y299720D03*
X185420Y299720D03*
X320040Y177800D03*
X345440Y177800D03*
X370840Y177800D03*
X396240Y177800D03*
D31*
X187960Y110380D02*
X187960Y86580D01*
X237960Y86580D02*
X237960Y110380D01*
X137960Y110380D02*
X137960Y86580D01*
D21*
X153280Y190500D03*
X136280Y190500D03*
X204080Y165100D03*
X187080Y165100D03*
X187080Y190500D03*
X204080Y190500D03*
D10*
X136280Y215900D03*
X153280Y215900D03*
D32*
X202080Y228440D03*
X189080Y228440D03*
X195580Y208440D03*
D21*
X448700Y388620D03*
X465700Y388620D03*
X465700Y408940D03*
X448700Y408940D03*
X448700Y327660D03*
X465700Y327660D03*
X465700Y307340D03*
X448700Y307340D03*
X448700Y347980D03*
X465700Y347980D03*
X465700Y368300D03*
X448700Y368300D03*
D10*
X153280Y165100D03*
X136280Y165100D03*
D23*
X373380Y86360D03*
X373380Y60960D03*
D33*
X342900Y69596D03*
X342900Y77724D03*
M02*
